@startuml online marketplace

class Customer {
    +username: String
    +email: String
    +makeOrder(products: List<Product>, quantities: List<Number>): Order
    +createWishlist(): Wishlist
    +addToWishlist(wishlist: Wishlist, product: Product): void
    +writeReview(product: Product, rating: Number, comment: String): Review
}

class Seller {
    +name: String
    +rating: Number
    +addProduct(product: Product): void
    +removeProduct(product: Product): void
    +updateProduct(product: Product): void
}

class Product {
    +title: String
    +description: String
    +price: Number
    +stockQuantity: Number
}

class PremiumProduct {
    +extraFeatures: String
}


class Wishlist {
    +name: String
    +addProduct(product: Product): void
    +removeProduct(product: Product): void
}

class Order {
    +orderNumber: String
    +orderDate: Date
    +status: String
    +addOrderItem(product: Product, quantity: Number): void
}

class OrderItem {
    +quantity: Number
}

class Review {
    +rating: Number
    +comment: String
}

class ShippingAddress {
    +street: String
    +city: String
    +state: String
    +country: String
    +zipCode: String
}

class Payment {
    +paymentMethod: String
    +amount: Number
    +paymentDate: Date
}

Customer "1" -- "many" Order : makes >
Customer "1" -- "many" Wishlist : creates >
Customer "1" -- "many" Review : writes >

Seller "1" -- "many" Product : lists >

Product <|-- PremiumProduct
Product "1" -- "many" Wishlist : appears in >
Product "1" -- "many" Review : receives >

Order "1" -- "1" ShippingAddress : has >
Order "1" -- "1" Payment : has >
Order "1" -- "many" OrderItem : contains >
OrderItem "many" -- "1" Product : associated with >

@enduml
